<?xml version="1.0" encoding="UTF-8"?>
<svg version="1.1" xmlns="http://www.w3.org/2000/svg" width="504" height="504">
<path d="M0 0 C1.67737313 1.51189237 3.34734855 3.03205607 5.0078125 4.5625 C6.7301331 6.1314414 8.47437053 7.60005634 10.30078125 9.04296875 C13.24818356 11.59738408 15.6943357 14.30716274 18.21484375 17.2734375 C20.18716292 19.56636 22.23987523 21.7670408 24.30078125 23.98046875 C39.14169836 40.50957168 50.72033516 59.41257317 60.11328125 79.48046875 C60.41186035 80.10566406 60.71043945 80.73085937 61.01806641 81.375 C68.29337721 96.69478254 73.26974909 112.81476002 76.92578125 129.35546875 C77.21799561 130.67140015 77.21799561 130.67140015 77.51611328 132.01391602 C80.71250154 147.27631791 81.52131618 162.24953555 81.48828125 177.79296875 C81.48746552 179.24138153 81.48746552 179.24138153 81.4866333 180.71905518 C81.4252335 204.50239063 78.260217 226.74353779 71.11328125 249.48046875 C70.88415039 250.2187793 70.65501953 250.95708984 70.41894531 251.71777344 C59.12143781 287.47954972 38.89770189 318.73128429 12.4765625 345.11328125 C10.97305547 346.61927342 9.48988114 348.14605382 8.03515625 349.69921875 C-25.86960473 385.31141374 -75.9397539 405.93950116 -123.88671875 412.48046875 C-124.61576416 412.58359375 -125.34480957 412.68671875 -126.09594727 412.79296875 C-185.3053733 419.97064568 -247.5233125 403.75751203 -294.88671875 367.48046875 C-295.78519531 366.79339844 -296.68367188 366.10632813 -297.609375 365.3984375 C-302.82006651 361.31525265 -307.75575033 356.96964191 -312.640625 352.50390625 C-314.41397471 350.90634947 -316.20355857 349.39663383 -318.07421875 347.91796875 C-321.00249953 345.38012541 -323.42452709 342.69517071 -325.92578125 339.74609375 C-327.27945793 338.18208483 -328.67326384 336.65223399 -330.09765625 335.15234375 C-346.05847596 318.31342069 -358.01289386 298.36050842 -367.88671875 277.48046875 C-368.18819824 276.85092285 -368.48967773 276.22137695 -368.80029297 275.57275391 C-376.07114261 260.25755998 -381.04454549 244.14002949 -384.69921875 227.60546875 C-384.89402832 226.72818115 -385.08883789 225.85089355 -385.28955078 224.94702148 C-388.48593904 209.68461959 -389.29475368 194.71140195 -389.26171875 179.16796875 C-389.26117493 178.20236023 -389.2606311 177.23675171 -389.2600708 176.24188232 C-389.198671 152.45854687 -386.0336545 130.21739971 -378.88671875 107.48046875 C-378.65758789 106.7421582 -378.42845703 106.00384766 -378.19238281 105.24316406 C-367.92010401 72.72670531 -350.06973052 45.04374898 -327.88671875 19.48046875 C-327.23960937 18.70960937 -326.5925 17.93875 -325.92578125 17.14453125 C-322.55569316 13.16447246 -319.00513505 9.67597225 -315.0234375 6.30859375 C-312.75016254 4.36363455 -310.57596226 2.3318622 -308.38671875 0.29296875 C-274.00178311 -30.5385085 -229.38136492 -49.31311115 -183.88671875 -55.51953125 C-183.15767334 -55.62265625 -182.42862793 -55.72578125 -181.67749023 -55.83203125 C-116.38648119 -63.74694955 -49.43214395 -43.14442875 0 0 Z " fill="#FAFAFA" transform="translate(404.88671875,73.51953125)"/>
<path d="M0 0 C0.78455566 0.12858398 1.56911133 0.25716797 2.37744141 0.38964844 C36.88322157 6.0743148 67.89349837 20.79015914 93 45 C93.77859375 45.71542969 94.5571875 46.43085937 95.359375 47.16796875 C112.58733652 63.44900331 124.47057638 85.86584711 129 109 C129.13825195 109.67643555 129.27650391 110.35287109 129.41894531 111.04980469 C136.9523801 148.68296764 132.17194288 195.25630793 110.58984375 227.73828125 C99.40374325 243.58618634 82.50989947 253.66840515 63.50390625 257.05859375 C57.15982272 258.08714229 50.97969113 258.30813483 44.5625 258.25 C43.46719971 258.24250732 42.37189941 258.23501465 41.2434082 258.22729492 C26.69573323 258.03361446 11.96400795 256.65945218 1 246 C1.99 245.67 2.98 245.34 4 245 C5.59594278 246.18846803 7.18945494 247.38036103 8.76953125 248.58984375 C24.12604328 258.29860179 48.3262047 256.95975101 65.4375 253.875 C76.56986213 251.09515695 86.41832456 246.67356164 95 239 C92.99001784 239.9335398 92.99001784 239.9335398 91.328125 241.234375 C73.41180309 254.30116617 47.89264435 256.36748433 26.51489258 253.22509766 C17.8723146 251.72340654 9.77421702 248.72559435 2.8125 243.29296875 C1.0593274 241.7290846 1.0593274 241.7290846 -1.25 242.3125 C-1.8275 242.539375 -2.405 242.76625 -3 243 C-2.34 243.66 -1.68 244.32 -1 245 C-0.53434266 246.52758321 -0.12487299 248.07264132 0.25 249.625 C2.82160905 258.41660928 7.45980886 263.37329906 15.4375 267.75390625 C31.11369121 275.37693216 48.80834382 274.39526261 65.8125 274.625 C68.16212274 274.66325005 70.51173251 274.70230567 72.86132812 274.7421875 C78.57414523 274.83891245 84.28685049 274.91908323 90 275 C90 284.9 90 294.8 90 305 C75.375 305.25 75.375 305.25 70.79443359 305.29785156 C69.59125488 305.3284668 68.38807617 305.35908203 67.1484375 305.390625 C65.92302246 305.41157227 64.69760742 305.43251953 63.43505859 305.45410156 C58.31255407 306.26816838 55.21744908 308.66507776 51.7734375 312.44140625 C46.48177034 320.07585997 44.4092868 329.00610623 42.125 337.875 C38.56744496 351.48516947 33.31246044 362.30507121 24 373 C23.50886719 373.64582031 23.01773438 374.29164063 22.51171875 374.95703125 C18.53434244 380.09961076 13.70862894 382.99684091 8 386 C7.32453125 386.36996094 6.6490625 386.73992187 5.953125 387.12109375 C1.17706226 389.49986918 -3.83466329 390.85975487 -9 392.125 C-9.63301025 392.28371582 -10.26602051 392.44243164 -10.91821289 392.60595703 C-24.51157728 395.73188849 -38.28740785 396.31015473 -52.17602539 396.20581055 C-54.69622909 396.18743636 -57.21606394 396.18530283 -59.73632812 396.18554688 C-72.81021054 396.15909964 -85.74820143 395.99673264 -98.5 392.8125 C-99.39364258 392.59255371 -100.28728516 392.37260742 -101.20800781 392.14599609 C-115.37501842 388.50865818 -126.95105778 382.84227976 -137 372 C-137.81404297 371.17628906 -137.81404297 371.17628906 -138.64453125 370.3359375 C-149.65115352 358.68186686 -153.50711515 344.2425965 -153.3515625 328.57714844 C-152.91659112 314.30162953 -146.99493429 300.31286461 -137 290 C-118.46689073 274.04541028 -94.17232516 273.74820645 -71 275 C-54.55095064 276.50997725 -36.37350499 282.49566851 -25 295 C-10.91868856 312.49830287 -10.91868856 312.49830287 -11.04296875 319.37890625 C-12.39924743 323.09344908 -14.98676113 324.99601631 -18 327.375 C-18.58507324 327.85106689 -19.17014648 328.32713379 -19.77294922 328.81762695 C-20.9529912 329.77404629 -22.13769134 330.72474907 -23.32714844 331.66943359 C-24.8164591 332.85401373 -26.28843571 334.06031324 -27.7578125 335.26953125 C-33.59623218 340 -33.59623218 340 -37 340 C-37.42410156 338.94941406 -37.84820312 337.89882813 -38.28515625 336.81640625 C-44.09881352 322.00609341 -44.09881352 322.00609341 -55.76953125 311.83984375 C-70.94696728 306.12504735 -89.57052865 303.56092928 -105 310 C-112.02200246 313.78834083 -116.48654639 319.45963916 -119 327 C-119.80667265 335.96559035 -119.53797251 342.73754492 -114 350 C-113.48050781 350.70898438 -112.96101563 351.41796875 -112.42578125 352.1484375 C-105.96431212 360.25163189 -97.82260049 363.48921438 -88 366 C-87.41686035 366.17345947 -86.8337207 366.34691895 -86.23291016 366.52563477 C-72.45792248 369.45202893 -54.7453041 367.85313753 -41 365 C-40.05382812 364.80535156 -39.10765625 364.61070312 -38.1328125 364.41015625 C-30.51601341 362.50030603 -26.21364713 359.44109964 -21.95703125 352.82421875 C-18.42282204 346.82629223 -15.29239366 340.62620027 -12.2265625 334.37890625 C-11.75250977 333.41533203 -11.27845703 332.45175781 -10.79003906 331.45898438 C-9.87166164 329.57913108 -8.96408269 327.69394927 -8.06933594 325.80273438 C-2.11302284 313.51306952 5.78582536 304.66611645 18.26953125 298.91015625 C20.62578881 297.67086051 22.27854564 296.00836342 24 294 C23.36835938 293.91363281 22.73671875 293.82726562 22.0859375 293.73828125 C8.23343104 291.5625994 -3.87934958 286.50402679 -15 278 C-6.70339602 286.72071154 4.6873204 291.55348307 16.2421875 294.39453125 C18 295 18 295 19 297 C4.57495594 295.35994331 -11.2025854 288.6405795 -20.5 277.125 C-36.98416384 252.17599527 -38.08552734 211.81930903 -32.40185547 183.04614258 C-32.10769092 181.70593406 -31.80154756 180.36829317 -31.48291016 179.03369141 C-30.96855614 176.86757968 -30.52264155 174.69236668 -30.07421875 172.51171875 C-25.74237884 152.84565921 -16.31772567 132.31772567 -2 118 C5.59 122.95 13.18 127.9 21 133 C19.97738206 137.09047176 19.00607981 138.48557174 16.4375 141.6875 C8.45121879 152.42668246 3.26981437 165.06853074 0 178 C-0.18691406 178.73734375 -0.37382812 179.4746875 -0.56640625 180.234375 C-2.44131376 192.1932445 -2.6926256 204.0618142 4.01171875 214.4609375 C6.72917465 217.93116606 9.23949503 220.68036219 13 223 C13.96486328 223.61294922 13.96486328 223.61294922 14.94921875 224.23828125 C22.73158322 228.424359 32.37900419 228.35364592 40.75 225.875 C55.85763689 219.82073364 63.71408956 209.67246953 70 195 C81.27266296 167.43255821 81.54176465 127.51725597 70 100 C65.50556575 89.72623942 60.20280711 80.65816881 53 72 C51.90171875 70.67355469 51.90171875 70.67355469 50.78125 69.3203125 C28.96487019 44.04711194 -4.29732446 33.9934727 -36.54785156 31.22705078 C-77.27157768 28.54861618 -117.20177058 33.38709131 -149 61 C-164.58093505 74.99153518 -174.29178364 93.00732028 -180 113 C-180.27457031 113.92554688 -180.54914063 114.85109375 -180.83203125 115.8046875 C-187.07006368 138.48285465 -188.83884489 167.91499578 -180 190 C-179.96132812 188.329375 -179.96132812 188.329375 -179.921875 186.625 C-179.28079384 167.1322605 -175.13657974 148.52162277 -161 134 C-149.38085645 124.1113672 -137.49973845 119.58350834 -122.3125 119.6875 C-121.00647827 119.69595947 -121.00647827 119.69595947 -119.67407227 119.70458984 C-105.45387058 119.96916392 -93.02294086 123.16686488 -82.3125 133 C-73.62169201 142.28159637 -68.58100601 153.94123354 -65 166 C-64.6803125 167.07378906 -64.360625 168.14757812 -64.03125 169.25390625 C-58.18680635 192.17170148 -61.97464972 217.72043148 -74 238 C-81.25598027 249.04424306 -90.59056248 257.38507009 -103 262 C-103.80824219 262.30679687 -104.61648437 262.61359375 -105.44921875 262.9296875 C-122.63740421 269.05790303 -144.56671181 267.91103897 -161.02929688 260.38500977 C-168.90503873 256.58934993 -175.56889767 251.95928302 -182 246 C-182.77730469 245.30261719 -183.55460937 244.60523438 -184.35546875 243.88671875 C-201.28631315 227.94666386 -209.28496416 207.27839984 -214 185 C-214.2947522 183.62400635 -214.2947522 183.62400635 -214.59545898 182.22021484 C-216.25712051 173.5387907 -216.35467137 164.92649687 -216.3125 156.125 C-216.31100952 155.35675903 -216.30951904 154.58851807 -216.3079834 153.79699707 C-216.24474033 135.61980534 -214.28733318 118.44212209 -209 101 C-208.71511719 99.94167969 -208.43023437 98.88335937 -208.13671875 97.79296875 C-203.13928877 79.9387145 -193.92619554 64.09662887 -182 50 C-180.98486328 48.78183594 -180.98486328 48.78183594 -179.94921875 47.5390625 C-153.21853753 16.55688353 -111.02002901 0.45266744 -70.96435547 -2.77294922 C-47.39619827 -4.12276978 -23.27121617 -4.23113021 0 0 Z " fill="#010101" transform="translate(299,59)"/>
<path d="M0 0 C7.92907987 5.32754503 12.45710968 13.18286302 15.15625 22.22265625 C17.80605349 35.96062554 16.22864031 50.48522909 8.55859375 62.36328125 C4.57099102 67.5284311 -0.77528364 72.97967584 -7.484375 73.9609375 C-14.6793912 74.07550782 -19.66265418 72.8120481 -25.0625 67.9296875 C-33.92689975 58.49215846 -36.37403921 49.03350511 -36.4375 36.5 C-36.458125 35.50484375 -36.47875 34.5096875 -36.5 33.484375 C-36.56051011 21.89668846 -33.59943925 12.23510073 -25.41796875 3.80078125 C-17.87922471 -2.98244596 -9.24874324 -4.99093766 0 0 Z " fill="#FCFCFC" transform="translate(183.1875,214.375)"/>
<path d="M0 0 C7.06579983 3.24876684 12.79945299 8.50206995 15.60546875 15.91796875 C17.59270394 25.25797415 16.81764918 35.82027025 11.890625 44.11328125 C7.07960795 50.46436891 -0.19599255 53.82044372 -7.92578125 55.12109375 C-9.6127512 55.20350918 -11.3024788 55.23898342 -12.99145508 55.23461914 C-13.98568481 55.23449829 -14.97991455 55.23437744 -16.00427246 55.23425293 C-17.03669067 55.22913696 -18.06910889 55.224021 -19.1328125 55.21875 C-20.09102905 55.21774292 -21.04924561 55.21673584 -22.03649902 55.21569824 C-25.603772 55.21048025 -29.17102787 55.196519 -32.73828125 55.18359375 C-40.72015625 55.16296875 -48.70203125 55.14234375 -56.92578125 55.12109375 C-56.92578125 36.97109375 -56.92578125 18.82109375 -56.92578125 0.12109375 C-53.29578125 0.12109375 -49.66578125 0.12109375 -45.92578125 0.12109375 C-45.92578125 16.29109375 -45.92578125 32.46109375 -45.92578125 49.12109375 C-39.32578125 49.12109375 -32.72578125 49.12109375 -25.92578125 49.12109375 C-25.9721875 46.23101562 -26.01859375 43.3409375 -26.06640625 40.36328125 C-26.09763229 37.55340327 -26.12190271 34.74354487 -26.14550781 31.93359375 C-26.16558031 29.98591409 -26.19284457 28.03829438 -26.22753906 26.09082031 C-26.27624977 23.28565654 -26.29879366 20.48129188 -26.31640625 17.67578125 C-26.33705139 16.80992401 -26.35769653 15.94406677 -26.37896729 15.05197144 C-26.38098598 9.57034056 -25.58680262 6.46679227 -21.92578125 2.12109375 C-15.80851304 -2.71533941 -7.19450068 -2.16123185 0 0 Z " fill="#050505" transform="translate(270.92578125,125.87890625)"/>
<path d="M0 0 C1.67737313 1.51189237 3.34734855 3.03205607 5.0078125 4.5625 C6.7301331 6.1314414 8.47437053 7.60005634 10.30078125 9.04296875 C13.24818356 11.59738408 15.6943357 14.30716274 18.21484375 17.2734375 C20.18716292 19.56636 22.23987523 21.7670408 24.30078125 23.98046875 C39.14169836 40.50957168 50.72033516 59.41257317 60.11328125 79.48046875 C60.41186035 80.10566406 60.71043945 80.73085937 61.01806641 81.375 C68.29337721 96.69478254 73.26974909 112.81476002 76.92578125 129.35546875 C77.21799561 130.67140015 77.21799561 130.67140015 77.51611328 132.01391602 C80.71250154 147.27631791 81.52131618 162.24953555 81.48828125 177.79296875 C81.48746552 179.24138153 81.48746552 179.24138153 81.4866333 180.71905518 C81.4252335 204.50239063 78.260217 226.74353779 71.11328125 249.48046875 C70.88415039 250.2187793 70.65501953 250.95708984 70.41894531 251.71777344 C59.12143781 287.47954972 38.89770189 318.73128429 12.4765625 345.11328125 C10.97305547 346.61927342 9.48988114 348.14605382 8.03515625 349.69921875 C-25.86960473 385.31141374 -75.9397539 405.93950116 -123.88671875 412.48046875 C-124.61576416 412.58359375 -125.34480957 412.68671875 -126.09594727 412.79296875 C-185.3053733 419.97064568 -247.5233125 403.75751203 -294.88671875 367.48046875 C-295.78519531 366.79339844 -296.68367188 366.10632813 -297.609375 365.3984375 C-302.82006651 361.31525265 -307.75575033 356.96964191 -312.640625 352.50390625 C-314.41397471 350.90634947 -316.20355857 349.39663383 -318.07421875 347.91796875 C-321.00249953 345.38012541 -323.42452709 342.69517071 -325.92578125 339.74609375 C-327.27945793 338.18208483 -328.67326384 336.65223399 -330.09765625 335.15234375 C-346.05847596 318.31342069 -358.01289386 298.36050842 -367.88671875 277.48046875 C-368.18819824 276.85092285 -368.48967773 276.22137695 -368.80029297 275.57275391 C-376.07114261 260.25755998 -381.04454549 244.14002949 -384.69921875 227.60546875 C-384.89402832 226.72818115 -385.08883789 225.85089355 -385.28955078 224.94702148 C-388.48593904 209.68461959 -389.29475368 194.71140195 -389.26171875 179.16796875 C-389.26117493 178.20236023 -389.2606311 177.23675171 -389.2600708 176.24188232 C-389.198671 152.45854687 -386.0336545 130.21739971 -378.88671875 107.48046875 C-378.65758789 106.7421582 -378.42845703 106.00384766 -378.19238281 105.24316406 C-367.92010401 72.72670531 -350.06973052 45.04374898 -327.88671875 19.48046875 C-327.23960937 18.70960937 -326.5925 17.93875 -325.92578125 17.14453125 C-322.55569316 13.16447246 -319.00513505 9.67597225 -315.0234375 6.30859375 C-312.75016254 4.36363455 -310.57596226 2.3318622 -308.38671875 0.29296875 C-274.00178311 -30.5385085 -229.38136492 -49.31311115 -183.88671875 -55.51953125 C-183.15767334 -55.62265625 -182.42862793 -55.72578125 -181.67749023 -55.83203125 C-116.38648119 -63.74694955 -49.43214395 -43.14442875 0 0 Z M-189.88671875 -53.51953125 C-190.76811523 -53.37418945 -191.64951172 -53.22884766 -192.55761719 -53.07910156 C-231.02305744 -46.48163988 -268.68410406 -30.45746999 -298.88671875 -5.51953125 C-299.88058594 -4.72804687 -300.87445313 -3.9365625 -301.8984375 -3.12109375 C-316.84783068 8.95568948 -330.67937215 22.85338992 -341.88671875 38.48046875 C-342.66015625 39.54394531 -343.43359375 40.60742188 -344.23046875 41.703125 C-364.62874971 70.44933259 -377.8132702 102.02953372 -384.88671875 136.48046875 C-385.15790527 137.7967627 -385.15790527 137.7967627 -385.43457031 139.13964844 C-387.90513265 151.81662935 -388.16492779 164.48450238 -388.19921875 177.35546875 C-388.20298523 178.13539185 -388.20675171 178.91531494 -388.21063232 179.71887207 C-388.23697131 190.47140819 -387.46145158 200.84038209 -385.88671875 211.48046875 C-385.76643311 212.35396973 -385.64614746 213.2274707 -385.5222168 214.12744141 C-380.18276233 252.21136213 -364.22303258 289.0149348 -340.88671875 319.48046875 C-339.95279297 320.70443359 -339.95279297 320.70443359 -339 321.953125 C-333.65507199 328.79419919 -327.86148201 335.19165239 -321.88671875 341.48046875 C-321.37979492 342.01607422 -320.87287109 342.55167969 -320.35058594 343.10351562 C-312.44707279 351.39653441 -304.09821477 358.67712458 -294.88671875 365.48046875 C-294.28649902 365.92551758 -293.6862793 366.37056641 -293.06787109 366.82910156 C-285.90880029 372.1098497 -278.6491962 377.1164265 -270.88671875 381.48046875 C-270.01660156 381.9703125 -269.14648438 382.46015625 -268.25 382.96484375 C-265.47713704 384.49960956 -262.68454825 385.99173862 -259.88671875 387.48046875 C-258.60365845 388.17619995 -258.60365845 388.17619995 -257.29467773 388.88598633 C-249.58523237 392.9227539 -241.73905085 395.79707925 -233.48657227 398.46801758 C-231.32053103 399.16916246 -229.15907466 399.8831777 -226.99804688 400.59960938 C-214.83850105 404.61020254 -203.03312368 407.85636872 -190.32421875 409.60546875 C-188.47268188 409.86312012 -188.47268188 409.86312012 -186.58374023 410.12597656 C-177.0090286 411.41486802 -167.54313453 412.29695888 -157.88671875 412.48046875 C-157.05624023 412.50093262 -156.22576172 412.52139648 -155.37011719 412.54248047 C-125.31935039 413.21310806 -97.05945157 406.77590301 -68.88671875 396.48046875 C-67.22769531 395.88685547 -67.22769531 395.88685547 -65.53515625 395.28125 C-50.23060979 389.3490843 -35.22524722 381.01617893 -21.88671875 371.48046875 C-20.6884115 370.67119178 -19.4877526 369.86538947 -18.28515625 369.0625 C-17.06885044 368.24372718 -15.85270158 367.42472116 -14.63671875 366.60546875 C-14.06228027 366.22366455 -13.4878418 365.84186035 -12.89599609 365.44848633 C-11.52332697 364.51008057 -10.19946311 363.50102162 -8.88671875 362.48046875 C-8.88671875 361.82046875 -8.88671875 361.16046875 -8.88671875 360.48046875 C-8.08234375 360.21234375 -7.27796875 359.94421875 -6.44921875 359.66796875 C-5.60359375 359.27609375 -4.75796875 358.88421875 -3.88671875 358.48046875 C-3.55671875 357.49046875 -3.22671875 356.50046875 -2.88671875 355.48046875 C-1.57866527 354.76547342 -0.24094183 354.10360763 1.11328125 353.48046875 C22.85565413 336.97603116 38.74809048 312.89421161 52.11328125 289.48046875 C52.64115234 288.56249512 52.64115234 288.56249512 53.1796875 287.62597656 C77.29318336 245.33837912 87.45913711 188.26612808 77.11328125 140.48046875 C76.72206516 138.57043347 76.33147619 136.66026968 75.94140625 134.75 C74.74137234 128.97536539 73.44527474 123.22591695 72.11328125 117.48046875 C71.9524707 116.76906738 71.79166016 116.05766602 71.62597656 115.32470703 C66.00153716 90.73485662 54.0942003 65.72495395 39.11328125 45.48046875 C38.42105469 44.51882812 37.72882813 43.5571875 37.015625 42.56640625 C23.73100947 24.43185171 8.25099448 6.89302467 -9.88671875 -6.51953125 C-10.49273926 -6.9695752 -11.09875977 -7.41961914 -11.72314453 -7.88330078 C-43.2839202 -31.16885486 -79.00716116 -47.26743363 -117.88671875 -53.51953125 C-119.03817383 -53.71216553 -119.03817383 -53.71216553 -120.21289062 -53.90869141 C-142.43531964 -57.45218756 -167.71160374 -57.2571186 -189.88671875 -53.51953125 Z " fill="#434343" transform="translate(404.88671875,73.51953125)"/>
<path d="M0 0 C5.54981564 2.39768571 9.13700013 5.61756024 12 11 C14.20574683 17.8556996 14.06592158 26.31662035 11.4375 33 C8.49587849 38.64501311 4.3267562 41.12746643 -1.5 43.3125 C-5.09432341 44.01852781 -8.34752105 44.04783008 -12 44 C-12.07429915 38.67979978 -12.12867247 33.35990331 -12.16479492 28.03930664 C-12.17985755 26.23033383 -12.20031177 24.4213974 -12.22631836 22.61254883 C-12.2628132 20.00853485 -12.27975157 17.4050048 -12.29296875 14.80078125 C-12.30845261 13.99538406 -12.32393646 13.18998688 -12.33988953 12.36018372 C-12.34126464 7.74552234 -11.99504689 4.75143162 -9 1 C-5.82912985 -0.58543507 -3.52009516 -0.34065437 0 0 Z " fill="#F6F6F6" transform="translate(267,131)"/>
<path d="M0 0 C0.99 0.33 1.98 0.66 3 1 C1.59545442 6.19681864 -0.87651598 10.58887689 -3.484375 15.25390625 C-4.76899744 17.58145671 -5.96787412 19.92018816 -7.125 22.3125 C-8.33141099 24.78061582 -9.56102123 26.82503122 -11.125 29.125 C-13.1062946 31.86391922 -13.1062946 31.86391922 -13.83984375 34.83203125 C-15.16771641 38.45797309 -16.91667164 40.65257826 -19.4375 43.5625 C-22.69392984 47.34171697 -22.69392984 47.34171697 -25.45703125 51.4765625 C-27.36955774 54.60439063 -29.74326172 57.16291057 -32.25 59.8125 C-33.24172629 60.87421518 -34.23261228 61.93671589 -35.22265625 63 C-35.70105957 63.51304687 -36.17946289 64.02609375 -36.67236328 64.5546875 C-38.3958213 66.43090513 -40.0425207 68.36739746 -41.6875 70.3125 C-44.48089967 73.5275449 -47.48145455 76.29518685 -50.734375 79.0390625 C-52.38739593 80.46978061 -53.99673138 81.95142541 -55.578125 83.4609375 C-61.32939982 88.9450766 -67.26138992 93.84066259 -73.75 98.4375 C-74.44665771 98.93338623 -75.14331543 99.42927246 -75.86108398 99.94018555 C-79.83113129 102.69678396 -83.83307546 105.05413812 -88.19824219 107.13134766 C-92.68565153 109.29478972 -96.88523859 111.92206615 -101.0625 114.625 C-104.29870537 116.66696514 -107.34542422 117.83053575 -111 119 C-113.60141234 120.28232884 -116.169469 121.6154167 -118.73046875 122.9765625 C-121 124 -121 124 -124 124 C-126.15028304 124.94978897 -126.15028304 124.94978897 -128 126 C-128 122 -128 122 -126.13671875 120.04296875 C-125.32847656 119.43066406 -124.52023437 118.81835938 -123.6875 118.1875 C-122.48673828 117.24970703 -122.48673828 117.24970703 -121.26171875 116.29296875 C-120.51535156 115.86628906 -119.76898438 115.43960938 -119 115 C-118.01 115.33 -117.02 115.66 -116 116 C-114.1684301 115.39168231 -114.1684301 115.39168231 -112.3046875 114.3046875 C-111.593125 113.92094971 -110.8815625 113.53721191 -110.1484375 113.1418457 C-109.39820313 112.72378662 -108.64796875 112.30572754 -107.875 111.875 C-106.72257812 111.24694458 -106.72257812 111.24694458 -105.546875 110.60620117 C-104.03112306 109.77847858 -102.51769685 108.94648023 -101.00683594 108.10986328 C-99.40961283 107.22653284 -97.80386606 106.35861899 -96.1953125 105.49609375 C-90.90632752 102.64455915 -85.93259701 99.42748433 -81 96 C-80.19224121 95.44022461 -80.19224121 95.44022461 -79.36816406 94.86914062 C-72.76661512 90.2783454 -66.31585526 85.71104605 -60.453125 80.1796875 C-59 79 -59 79 -57 79 C-56.74927734 78.42475586 -56.49855469 77.84951172 -56.24023438 77.25683594 C-54.83271173 74.69558804 -53.21829975 72.95942608 -51.15625 70.890625 C-50.40472656 70.13652344 -49.65320313 69.38242187 -48.87890625 68.60546875 C-48.09386719 67.82816406 -47.30882812 67.05085938 -46.5 66.25 C-45.71496094 65.45722656 -44.92992187 64.66445313 -44.12109375 63.84765625 C-43.36957031 63.09871094 -42.61804688 62.34976563 -41.84375 61.578125 C-41.15474609 60.89137695 -40.46574219 60.20462891 -39.75585938 59.49707031 C-38 58 -38 58 -36 58 C-35.72309326 57.40848145 -35.44618652 56.81696289 -35.16088867 56.20751953 C-34.06773533 54.12880396 -32.91391629 52.4873016 -31.42578125 50.6796875 C-30.9263501 50.06681885 -30.42691895 49.4539502 -29.91235352 48.82250977 C-29.38440186 48.17983154 -28.8564502 47.53715332 -28.3125 46.875 C-20.2413709 36.91639432 -12.63730786 26.6588881 -7.04296875 15.08203125 C-5.50388853 12.00963516 -3.77654548 9.04879037 -2.05078125 6.078125 C-1.02509598 4.04963221 -0.45487278 2.21937926 0 0 Z " fill="#CECECE" transform="translate(457,342)"/>
<path d="M0 0 C0.66 0 1.32 0 2 0 C2.17463177 6.63600738 1.60049166 12.73306715 0.375 19.25 C0.10876831 20.67856323 0.10876831 20.67856323 -0.1628418 22.13598633 C-9.29573582 69.14113585 -31.80838412 110.85459392 -65.63671875 144.6328125 C-67.14022578 146.13880467 -68.62340011 147.66558507 -70.078125 149.21875 C-103.98288598 184.83094499 -154.05303515 205.45903241 -202 212 C-202.72904541 212.103125 -203.45809082 212.20625 -204.20922852 212.3125 C-245.20912977 217.2827229 -286.96074193 210.52001729 -325 195 C-324.505 194.01 -324.505 194.01 -324 193 C-322.77667969 193.4125 -321.55335938 193.825 -320.29296875 194.25 C-297.95974552 201.81964313 -297.95974552 201.81964313 -275 207 C-274.23445801 207.12713379 -273.46891602 207.25426758 -272.68017578 207.38525391 C-260.47720363 209.37276191 -248.36050658 210.69156565 -236 211 C-235.15937012 211.02191406 -234.31874023 211.04382813 -233.45263672 211.06640625 C-203.41479417 211.73206481 -175.15969049 205.29066808 -147 195 C-145.89398438 194.60425781 -144.78796875 194.20851563 -143.6484375 193.80078125 C-124.72329912 186.4652449 -107.31606379 175.62949735 -91.1796875 163.46875 C-89 162 -89 162 -87 162 C-87 161.34 -87 160.68 -87 160 C-85.33333333 159 -83.66666667 158 -82 157 C-80.31066078 155.3563186 -78.64740076 153.6857124 -77 152 C-75.79886676 150.95003913 -74.58976531 149.90915866 -73.375 148.875 C-54.10213688 132.06096369 -39.61900806 111.10654641 -27 89 C-26.64808594 88.38801758 -26.29617188 87.77603516 -25.93359375 87.14550781 C-11.52154437 61.87124041 -0.68979928 29.15969675 0 0 Z " fill="#4F4F4F" transform="translate(483,274)"/>
<path d="M0 0 C0.73301331 0.00182281 1.46602661 0.00364563 2.22125244 0.00552368 C41.82005459 0.16998744 80.13153359 8.96772743 108.8671875 37.64453125 C110.17042969 38.96517578 110.17042969 38.96517578 111.5 40.3125 C111.17 40.9725 110.84 41.6325 110.5 42.3125 C109.92894531 41.69503906 109.35789062 41.07757813 108.76953125 40.44140625 C85.53095739 16.16836487 51.03152097 5.04801989 17.92773438 4.13549805 C16.31648824 4.109393 14.7051379 4.08920567 13.09375 4.07421875 C11.78204079 4.05952797 11.78204079 4.05952797 10.4438324 4.04454041 C-29.61119383 3.68823459 -65.63162594 7.80277428 -96.2109375 36.234375 C-98.56338188 38.37004123 -101.00069031 40.35191078 -103.5 42.3125 C-96.5992864 26.65453565 -74.71759897 15.58289274 -59.56152344 9.53955078 C-40.42242085 2.30498954 -20.32350389 -0.10609077 0 0 Z " fill="#E7E7E7" transform="translate(241.5,84.6875)"/>
<path d="M0 0 C0.99 0.33 1.98 0.66 3 1 C1.59545442 6.19681864 -0.87651598 10.58887689 -3.484375 15.25390625 C-4.76899744 17.58145671 -5.96787412 19.92018816 -7.125 22.3125 C-10.04175497 28.19363043 -13.92021917 33.21378962 -17.9765625 38.33984375 C-19.83394336 40.78169002 -21.57095868 43.28228849 -23.29931641 45.81616211 C-29.17930998 54.36833657 -36.06996191 61.71642918 -43.27661133 69.15966797 C-44.98417129 70.9830972 -46.58717927 72.86422225 -48.18359375 74.78515625 C-50.35107892 77.34754928 -52.41473097 79.25369851 -55.3125 81 C-64.29175642 86.67714837 -64.29175642 86.67714837 -71.625 94.25 C-74.47093541 97.54529363 -76.96046447 98.48517418 -81 100 C-81.886875 100.5775 -82.77375 101.155 -83.6875 101.75 C-86 103 -86 103 -88.14453125 102.578125 C-89.06298828 102.29195312 -89.06298828 102.29195312 -90 102 C-89.51273437 101.68289063 -89.02546875 101.36578125 -88.5234375 101.0390625 C-73.86997721 91.41313452 -73.86997721 91.41313452 -60.453125 80.1796875 C-59 79 -59 79 -57 79 C-56.74927734 78.42475586 -56.49855469 77.84951172 -56.24023438 77.25683594 C-54.83271173 74.69558804 -53.21829975 72.95942608 -51.15625 70.890625 C-50.40472656 70.13652344 -49.65320313 69.38242187 -48.87890625 68.60546875 C-48.09386719 67.82816406 -47.30882812 67.05085938 -46.5 66.25 C-45.71496094 65.45722656 -44.92992187 64.66445313 -44.12109375 63.84765625 C-43.36957031 63.09871094 -42.61804688 62.34976563 -41.84375 61.578125 C-41.15474609 60.89137695 -40.46574219 60.20462891 -39.75585938 59.49707031 C-38 58 -38 58 -36 58 C-35.72309326 57.40848145 -35.44618652 56.81696289 -35.16088867 56.20751953 C-34.06773533 54.12880396 -32.91391629 52.4873016 -31.42578125 50.6796875 C-30.9263501 50.06681885 -30.42691895 49.4539502 -29.91235352 48.82250977 C-29.38440186 48.17983154 -28.8564502 47.53715332 -28.3125 46.875 C-20.2413709 36.91639432 -12.63730786 26.6588881 -7.04296875 15.08203125 C-5.50388853 12.00963516 -3.77654548 9.04879037 -2.05078125 6.078125 C-1.02509598 4.04963221 -0.45487278 2.21937926 0 0 Z " fill="#DBDBDB" transform="translate(457,342)"/>
<path d="M0 0 C0.94875 0.845625 1.8975 1.69125 2.875 2.5625 C30.75946211 26.16986334 68.94742547 26.09515582 103.73706055 23.48413086 C122.16205566 21.8091313 139.8368209 18.14263919 155 7 C152.17886017 13.76201043 144.93539802 16.74434373 138.5625 19.625 C124.43086625 25.24141854 109.27805718 27.12162974 94.17578125 27.23828125 C93.1530864 27.246353 92.13039154 27.25442474 91.07670593 27.26274109 C88.91598159 27.27650824 86.75523617 27.28726298 84.59448242 27.29516602 C82.42970193 27.30659943 80.26494766 27.32691111 78.1003418 27.35668945 C53.26192975 27.69715011 25.94590547 25.65917106 6.25 8.62109375 C4.05079932 6.48030933 1.92682298 4.38906587 0 2 C0 1.34 0 0.68 0 0 Z " fill="#EEEEEE" transform="translate(162,426)"/>
<path d="M0 0 C0.95148926 0.00182281 1.90297852 0.00364563 2.88330078 0.00552368 C16.74737707 0.05028508 30.33824763 0.35702612 43.9375 3.3125 C44.73333496 3.47878906 45.52916992 3.64507812 46.34912109 3.81640625 C58.83896377 6.51151716 70.31606313 11.06788739 81.9375 16.3125 C81.6075 17.3025 81.2775 18.2925 80.9375 19.3125 C79.72126953 18.73242188 79.72126953 18.73242188 78.48046875 18.140625 C36.94878244 -1.39232176 -14.52202544 -4.00122493 -58.04638672 10.99609375 C-66.89625599 14.23837444 -74.40892159 18.8871786 -82.0625 24.3125 C-83.80866926 25.48489244 -85.55830115 26.6521563 -87.3125 27.8125 C-88.40304688 28.53953125 -88.40304688 28.53953125 -89.515625 29.28125 C-90.28132812 29.79171875 -90.28132812 29.79171875 -91.0625 30.3125 C-87.15800645 20.72874311 -75.83484659 15.33980462 -66.80859375 11.3828125 C-45.20539642 2.41388191 -23.21429953 -0.09203618 0 0 Z " fill="#101010" transform="translate(242.0625,87.6875)"/>
<path d="M0 0 C0.66 0 1.32 0 2 0 C2.17463177 6.63600738 1.60049166 12.73306715 0.375 19.25 C0.19751221 20.20237549 0.02002441 21.15475098 -0.1628418 22.13598633 C-6.8787004 56.70114573 -20.88675313 89.74988095 -42 118 C-42.99 117.67 -43.98 117.34 -45 117 C-44.45472656 116.23558594 -43.90945313 115.47117187 -43.34765625 114.68359375 C-37.48124693 106.3502841 -32.06830165 97.84116899 -27 89 C-26.64518555 88.38366699 -26.29037109 87.76733398 -25.92480469 87.13232422 C-11.51719498 61.86246767 -0.68964193 29.15304509 0 0 Z " fill="#575757" transform="translate(483,274)"/>
<path d="M0 0 C0.94359375 0.39832031 1.8871875 0.79664063 2.859375 1.20703125 C10.80255208 4.50749728 18.55546527 7.24024942 27 9 C27.84860596 9.18103271 28.69721191 9.36206543 29.5715332 9.54858398 C39.9365046 11.44210609 50.31207333 11.33709169 60.81713867 11.31567383 C64.03143797 11.31253038 67.24479931 11.33598083 70.45898438 11.36132812 C89.20114707 11.41961361 106.40186176 9.58300727 124 3 C125.9974718 2.32579613 127.99669618 1.6566721 130 1 C129 4 129 4 127.53125 5.02734375 C122.49598831 7.28352831 117.35285582 8.81823716 112 10.125 C111.36771484 10.28347412 110.73542969 10.44194824 110.08398438 10.60522461 C96.49042779 13.73272766 82.71302485 14.31015798 68.82397461 14.20581055 C66.30377091 14.18743636 63.78393606 14.18530283 61.26367188 14.18554688 C48.18813685 14.1590963 35.25425595 13.99145147 22.5 10.8125 C21.16932495 10.49019409 21.16932495 10.49019409 19.81176758 10.16137695 C12.1503991 8.21709589 5.09705375 5.47099604 -2 2 C-1.34 1.34 -0.68 0.68 0 0 Z " fill="#0C0C0C" transform="translate(178,441)"/>
<path d="M0 0 C0.495 0.99 0.495 0.99 1 2 C-16.21094809 14.7416535 -32.28373367 19.21713322 -53.6875 19.375 C-55.52235962 19.39590698 -55.52235962 19.39590698 -57.39428711 19.41723633 C-69.04369055 19.35669748 -83.30170631 17.69829369 -92 9 C-92.99 8.855625 -93.98 8.71125 -95 8.5625 C-95.99 8.376875 -96.98 8.19125 -98 8 C-98.66 7.01 -99.32 6.02 -100 5 C-97.8125 4.30078125 -97.8125 4.30078125 -95 4 C-92.5625 5.29296875 -92.5625 5.29296875 -90 7.1875 C-73.66962712 18.22868328 -50.823305 18.02908816 -32.02490234 14.40795898 C-19.84147665 11.81042606 -9.95834423 7.35020646 0 0 Z " fill="#F4F4F4" transform="translate(395,296)"/>
<path d="M0 0 C0.886875 0.804375 1.77375 1.60875 2.6875 2.4375 C19.53823876 16.80318032 37.4816078 24.37612392 59.84326172 23.17285156 C74.05775447 22.03363254 86.07651706 18.39313992 97 9 C97.99 9.495 97.99 9.495 99 10 C86.11519147 22.80901554 71.07738675 26.25309927 53.5 26.4375 C44.30722191 26.38829751 36.43603659 25.91506671 28 22 C26.94296875 21.525625 25.8859375 21.05125 24.796875 20.5625 C16.48653728 16.46640937 3.51239692 9.20118703 0 0 Z " fill="#F5F5F5" transform="translate(114,297)"/>
<path d="M0 0 C0.495 1.485 0.495 1.485 1 3 C-0.51724323 5.09666289 -2.0279207 6.96001018 -3.75 8.875 C-7.39927241 12.98797858 -7.39927241 12.98797858 -10.5 17.51953125 C-12.38701991 20.63999387 -14.75690709 23.17771057 -17.25 25.8125 C-18.23919167 26.87024306 -19.22747288 27.92883832 -20.21484375 28.98828125 C-20.6929248 29.50084473 -21.17100586 30.0134082 -21.66357422 30.54150391 C-23.43878304 32.47886187 -25.12417825 34.48685572 -26.8125 36.5 C-29.57829002 39.70671306 -32.35093706 41.86396315 -36 44 C-34.40431958 39.95824659 -31.51608181 37.37263705 -28.4375 34.4375 C-20.28420108 26.46639088 -13.43187109 17.72339204 -6.796875 8.4609375 C-4.65095088 5.52195447 -2.37960394 2.75141706 0 0 Z M-38 44 C-37.34 44.33 -36.68 44.66 -36 45 C-46.4262855 55.24452775 -57.7009328 65.6103711 -71 72 C-71.33 71.34 -71.66 70.68 -72 70 C-69.62205356 66.43308034 -66.80256175 64.78094664 -63 63 C-62.33226562 62.87238281 -61.66453125 62.74476563 -60.9765625 62.61328125 C-58.32855038 61.79166484 -57.44920172 60.47774492 -55.75 58.3125 C-52.25685231 54.13119474 -48.48346368 51.06143581 -44 48 C-43.39285156 47.58492188 -42.78570312 47.16984375 -42.16015625 46.7421875 C-40.78222971 45.814924 -39.39254837 44.90515644 -38 44 Z " fill="#CDCDCD" transform="translate(442,376)"/>
<path d="M0 0 C0.99 0.33 1.98 0.66 3 1 C-4.11263252 9.07144328 -16.80376528 11.96368301 -27 14 C-27.85464844 14.185625 -28.70929688 14.37125 -29.58984375 14.5625 C-47.24784365 16.82790205 -69.86403956 17.06948113 -85.08203125 6.5625 C-86.75 5.1875 -86.75 5.1875 -89 3 C-88.01 2.67 -87.02 2.34 -86 2 C-84.40405722 3.18846803 -82.81054506 4.38036103 -81.23046875 5.58984375 C-65.87395672 15.29860179 -41.6737953 13.95975101 -24.5625 10.875 C-16.9054356 8.98769539 -8.01771519 6.18572815 -1.79296875 1.25 C-1.20128906 0.8375 -0.60960937 0.425 0 0 Z " fill="#0D0D0D" transform="translate(389,302)"/>
<path d="M0 0 C2.4375 1.5625 2.4375 1.5625 4 4 C4.56288002 7.94016013 4.60396028 10.05782196 2.4375 13.4375 C-0.96719488 15.61999672 -3.03430012 15.63734462 -7 15 C-9.96135546 12.41830549 -10.86756104 10.81118865 -11.5 6.9375 C-11 4 -11 4 -9.4375 1.625 C-6.06489221 -0.62340519 -3.97487617 -0.56783945 0 0 Z " fill="#373737" transform="translate(258,99)"/>
<path d="M0 0 C0.66 0 1.32 0 2 0 C6.14883252 12.22382448 10.12968844 24.43751599 12.875 37.0625 C13.16056763 38.35909546 13.16056763 38.35909546 13.4519043 39.68188477 C16.74133886 55.53151909 17.2643847 70.87345317 17.125 87 C17.11494087 89.04687058 17.10582025 91.09374599 17.09765625 93.140625 C17.07589645 98.09387219 17.04153157 103.04688076 17 108 C16.34 108 15.68 108 15 108 C15.02356567 106.28623169 15.02356567 106.28623169 15.04760742 104.5378418 C15.10289926 100.20083994 15.13670146 95.86386737 15.16479492 91.52661133 C15.17966003 89.66783368 15.19995805 87.80908962 15.22631836 85.95043945 C15.40532354 72.98133888 14.49058415 60.7322781 12 48 C11.78512939 46.87875732 11.57025879 45.75751465 11.34887695 44.60229492 C10.78777272 41.80920693 10.18794185 39.02931676 9.5625 36.25 C9.34932129 35.28827881 9.13614258 34.32655762 8.91650391 33.33569336 C6.52623374 22.68464235 3.99217032 12.18003431 0 2 C0 1.34 0 0.68 0 0 Z " fill="#494949" transform="translate(469,166)"/>
<path d="M0 0 C1.50390625 1.3671875 1.50390625 1.3671875 2.50390625 3.3671875 C1.71113281 2.95146484 1.71113281 2.95146484 0.90234375 2.52734375 C-1.97244632 1.1367694 -4.89629168 -0.03382218 -7.87109375 -1.1953125 C-8.97195312 -1.62972656 -10.0728125 -2.06414062 -11.20703125 -2.51171875 C-18.41747667 -4.9694359 -25.58513788 -4.84859704 -33.12109375 -4.8828125 C-34.78978516 -4.91375 -34.78978516 -4.91375 -36.4921875 -4.9453125 C-47.7701284 -4.9978291 -57.22902123 -3.22669102 -66.49609375 3.3671875 C-64.063058 -2.305881 -59.59740971 -4.3903139 -54.0390625 -6.6171875 C-37.2442683 -11.7108876 -14.43658631 -10.57404614 0 0 Z " fill="#F8F8F8" transform="translate(249.49609375,369.6328125)"/>
<path d="M0 0 C1.37671875 0.61488281 1.37671875 0.61488281 2.78125 1.2421875 C4.02068806 1.78678907 5.26027975 2.33104111 6.5 2.875 C7.7065625 3.40867187 8.913125 3.94234375 10.15625 4.4921875 C18.15534722 7.752512 25.42574361 8.38800904 34 8.375 C35.1019873 8.37338867 36.20397461 8.37177734 37.33935547 8.37011719 C47.56009619 8.21772491 57.84305545 7.31293847 66.6796875 1.734375 C70 0 70 0 72.4375 0.75 C73.2109375 1.36875 73.2109375 1.36875 74 2 C54.5649005 11.19080406 31.92415173 15.42937981 11 8 C7.25495348 6.47474469 3.60636336 4.82847682 0 3 C0 2.01 0 1.02 0 0 Z " fill="#101010" transform="translate(133,314)"/>
<path d="M0 0 C0.33 0.99 0.66 1.98 1 3 C-0.98 3.99 -0.98 3.99 -3 5 C-1.125 1.125 -1.125 1.125 0 0 Z M-5 5 C-4.34 5.33 -3.68 5.66 -3 6 C-5.92511844 10.02203786 -9.28258117 13.03127955 -13.04296875 16.2265625 C-14.81450053 17.83190267 -16.27420978 19.43920591 -17.75 21.3125 C-19.8084296 23.7711798 -21.04522206 24.9056378 -24 26 C-22.54254576 22.63664406 -20.68882146 20.45465995 -18.0859375 17.890625 C-17.32539063 17.13652344 -16.56484375 16.38242187 -15.78125 15.60546875 C-14.9871875 14.82816406 -14.193125 14.05085938 -13.375 13.25 C-12.57320313 12.45722656 -11.77140625 11.66445313 -10.9453125 10.84765625 C-8.96797154 8.89385507 -6.98611091 6.94487897 -5 5 Z M-26 26 C-25.34 26.33 -24.68 26.66 -24 27 C-26.5262998 30.26932915 -28.47159206 32.65147561 -31.9375 34.9375 C-34.65279501 36.76616807 -35.97146122 38.06312091 -37.9375 40.5625 C-40.82958434 44.11325277 -43.6709298 45.42579266 -48 47 C-48.886875 47.5775 -49.77375 48.155 -50.6875 48.75 C-53 50 -53 50 -55.14453125 49.578125 C-56.06298828 49.29195313 -56.06298828 49.29195313 -57 49 C-56.51273437 48.68289063 -56.02546875 48.36578125 -55.5234375 48.0390625 C-45.26306464 41.28587164 -34.97953628 34.42180111 -26 26 Z " fill="#E3E3E3" transform="translate(424,395)"/>
<path d="M0 0 C0 3 0 3 -1.36328125 4.4296875 C-16.70875075 15.80809174 -34.45805336 18.48311308 -53 20 C-53 19.34 -53 18.68 -53 18 C-54.98 18 -56.96 18 -59 18 C-59 17.67 -59 17.34 -59 17 C-57.69289063 16.90203125 -56.38578125 16.8040625 -55.0390625 16.703125 C-35.7445459 15.13841003 -15.26986829 13.0692108 0 0 Z " fill="#DFDFDF" transform="translate(316,433)"/>
<path d="M0 0 C-0.84131623 3.11867222 -1.87763555 5.54146908 -4 8 C-10.6124263 10.46364616 -18.0277475 10.23240842 -25 10 C-22.30469655 6.7931791 -18.81501223 5.18548417 -15.125 3.375 C-14.51269531 3.06304687 -13.90039062 2.75109375 -13.26953125 2.4296875 C-5.01427477 -1.67142492 -5.01427477 -1.67142492 0 0 Z " fill="#C1C1C1" transform="translate(295,475)"/>
<path d="M0 0 C1.15693359 0.00644531 2.31386719 0.01289063 3.50585938 0.01953125 C4.70404297 0.03628906 5.90222656 0.05304688 7.13671875 0.0703125 C8.96299805 0.08384766 8.96299805 0.08384766 10.82617188 0.09765625 C13.82572149 0.12118213 16.82486919 0.15405597 19.82421875 0.1953125 C20.31921875 1.6803125 20.31921875 1.6803125 20.82421875 3.1953125 C19.94161377 3.20989502 19.05900879 3.22447754 18.1496582 3.23950195 C14.85983232 3.30073317 11.57081945 3.3749158 8.28149414 3.45776367 C6.86070673 3.49091807 5.43979062 3.51897942 4.01879883 3.54174805 C1.97031055 3.57547097 -0.07700845 3.62778995 -2.125 3.68359375 C-3.97097778 3.72286987 -3.97097778 3.72286987 -5.85424805 3.76293945 C-9.38483274 4.2225253 -11.22595807 5.29723135 -14.17578125 7.1953125 C-14.83578125 6.8653125 -15.49578125 6.5353125 -16.17578125 6.1953125 C-10.88254117 1.65824957 -6.99325362 -0.06889905 0 0 Z " fill="#E1E1E1" transform="translate(365.17578125,359.8046875)"/>
<path d="M0 0 C2.39627212 1.06500983 4.22406381 2.1849108 6.2578125 3.86328125 C16.42600857 11.78636281 28.70938224 14.97611785 41 18 C40.505 19.485 40.505 19.485 40 21 C37.9375 21.6875 37.9375 21.6875 36 22 C35.505 21.01 35.505 21.01 35 20 C32.71332339 19.17607997 30.45030356 18.44601115 28.125 17.75 C17.16303337 14.25618241 8.08304794 9.36246194 0 1 C0 0.67 0 0.34 0 0 Z " fill="#E7E7E7" transform="translate(282,335)"/>
<path d="M0 0 C0.495 0.99 0.495 0.99 1 2 C-11.15756137 11.00051721 -24.29467351 19.0647679 -40 18 C-40.99 17.34 -41.98 16.68 -43 16 C-41.93523437 15.84144531 -40.87046875 15.68289063 -39.7734375 15.51953125 C-24.75156011 13.16066651 -12.29509365 9.07495007 0 0 Z " fill="#E3E3E3" transform="translate(395,296)"/>
<path d="M0 0 C0.886875 0.804375 1.77375 1.60875 2.6875 2.4375 C15.54719062 13.40071099 28.27824922 19.99740825 45 23 C44.01 23.495 44.01 23.495 43 24 C43 24.66 43 25.32 43 26 C27.08299201 23.10599855 13.31655093 15.49504542 2 4 C0.6484375 1.671875 0.6484375 1.671875 0 0 Z " fill="#D8D8D8" transform="translate(114,297)"/>
<path d="M0 0 C0.66 0.33 1.32 0.66 2 1 C1.01 1.33 0.02 1.66 -1 2 C-1.70674629 3.31252882 -2.36184656 4.65278717 -3 6 C-6.62588339 11.82338848 -10.96886814 16.56654666 -17 20 C-17.99 19.67 -18.98 19.34 -20 19 C-18.69502611 14.99625811 -17.33829207 13.08412654 -13.9375 10.625 C-13.1434375 10.03847656 -12.349375 9.45195312 -11.53125 8.84765625 C-10.6959375 8.23792969 -9.860625 7.62820313 -9 7 C-7.30825598 5.69297488 -5.62054508 4.38070778 -3.9375 3.0625 C-3.18339844 2.47597656 -2.42929687 1.88945312 -1.65234375 1.28515625 C-0.83443359 0.64900391 -0.83443359 0.64900391 0 0 Z " fill="#676767" transform="translate(282,379)"/>
<path d="M0 0 C6.35015573 -0.20119305 11.75907611 0.32384177 17.875 2 C18.67784424 2.21422607 19.48068848 2.42845215 20.30786133 2.64916992 C29.54936621 5.24310352 38.26660052 9.05872341 47 13 C46.67 13.99 46.34 14.98 46 16 C44.78376953 15.41992188 44.78376953 15.41992188 43.54296875 14.828125 C29.50780721 8.22718756 15.36623067 3.35853773 0 1 C0 0.67 0 0.34 0 0 Z " fill="#1C1C1C" transform="translate(277,91)"/>
<path d="M0 0 C2.52226953 1.82550999 4.79261506 3.80681046 7 6 C6.67 6.66 6.34 7.32 6 8 C5.45730469 7.57847656 4.91460937 7.15695313 4.35546875 6.72265625 C3.28232422 5.90087891 3.28232422 5.90087891 2.1875 5.0625 C1.47980469 4.51722656 0.77210938 3.97195312 0.04296875 3.41015625 C-5.6371386 -0.5105297 -13.39231163 0.47055983 -20 1 C-23.04388786 2.02356875 -25.24241228 3.30302294 -28 5 C-28.99 5 -29.98 5 -31 5 C-21.02257369 -2.87300637 -12.07679223 -5.98360123 0 0 Z " fill="#DEDEDE" transform="translate(185,211)"/>
<path d="M0 0 C1.12921875 -0.01224609 2.2584375 -0.02449219 3.421875 -0.03710938 C10.27753093 -0.04901156 16.59381454 0.52156589 23.25 2.1875 C23.745 3.6725 23.745 3.6725 24.25 5.1875 C23.08210938 4.86265625 23.08210938 4.86265625 21.890625 4.53125 C5.84616483 0.53861936 -13.00657208 -0.41283295 -27.75 8.1875 C-27.48046875 6.29296875 -27.48046875 6.29296875 -26.75 4.1875 C-25.11328125 3.17578125 -25.11328125 3.17578125 -23.0625 2.5 C-22.39863281 2.26925781 -21.73476562 2.03851563 -21.05078125 1.80078125 C-14.0598524 -0.06267517 -7.1817013 0.00404375 0 0 Z " fill="#171717" transform="translate(215.75,363.8125)"/>
<path d="M0 0 C-2.90053737 2.29344815 -5.84594811 4.04833459 -9.125 5.75 C-17.89272089 10.48899389 -25.38430901 16.10143136 -32.67578125 22.88671875 C-35.03934007 25.03576971 -37.48669927 27.02939429 -40 29 C-34.29390259 16.05266223 -17.09839961 6.40578403 -5.171875 -0.171875 C-3 -1 -3 -1 0 0 Z " fill="#CBCBCB" transform="translate(178,98)"/>
<path d="M0 0 C0.94359375 0.39832031 1.8871875 0.79664063 2.859375 1.20703125 C14.70012488 6.12633166 26.30237758 9.08635123 39 11 C39 11.66 39 12.32 39 13 C24.97014307 12.65319455 10.37709681 8.53621966 -2 2 C-1.34 1.34 -0.68 0.68 0 0 Z " fill="#191919" transform="translate(178,441)"/>
<path d="M0 0 C11.40384622 0.50459497 21.34443103 3.36273327 30 11 C25.95230326 11 23.53685705 9.24237292 20.05859375 7.2890625 C12.34816875 4.03945809 4.14439646 3.6537437 -4.125 3.375 C-5.55972656 3.31699219 -5.55972656 3.31699219 -7.0234375 3.2578125 C-9.34878199 3.16479872 -11.67414335 3.07896229 -14 3 C-14 2.67 -14 2.34 -14 2 C-9.38 1.67 -4.76 1.34 0 1 C0 0.67 0 0.34 0 0 Z " fill="#E3E3E3" transform="translate(222,361)"/>
<path d="M0 0 C0.66 0.33 1.32 0.66 2 1 C-5.38525425 9.49545586 -22.31006652 10.9252266 -32.8125 11.6875 C-34.8744423 11.80217727 -36.93682036 11.91029654 -39 12 C-39 11.34 -39 10.68 -39 10 C-37.73027344 9.84144531 -36.46054687 9.68289063 -35.15234375 9.51953125 C-23.68150489 7.99731872 -12.0747422 6.30007675 -1.71875 0.78515625 C-1.1515625 0.52605469 -0.584375 0.26695312 0 0 Z " fill="#111111" transform="translate(306,442)"/>
<path d="M0 0 C-1.45757162 3.68430638 -3.22428602 5.09273976 -6.578125 7.12890625 C-7.49207031 7.68900391 -8.40601563 8.24910156 -9.34765625 8.82617188 C-10.30542969 9.39916016 -11.26320313 9.97214844 -12.25 10.5625 C-13.19230469 11.13935547 -14.13460938 11.71621094 -15.10546875 12.31054688 C-28.06309952 20.18871369 -28.06309952 20.18871369 -31.16113281 19.56469727 C-31.76795898 19.37834717 -32.37478516 19.19199707 -33 19 C-31.85144531 18.38253906 -30.70289063 17.76507813 -29.51953125 17.12890625 C-20.78747912 12.38396342 -12.43731651 7.47824361 -4.40625 1.6171875 C-2 0 -2 0 0 0 Z " fill="#5A5A5A" transform="translate(389,441)"/>
<path d="M0 0 C3.13534313 0.63411434 5.4537526 1.73176386 8.1875 3.375 C16.7599771 8.21182854 25.29383802 9.72484734 35 11 C35 11.66 35 12.32 35 13 C22.33387366 12.59141528 10.9664943 10.2856841 1 2 C0.67 1.34 0.34 0.68 0 0 Z " fill="#191919" transform="translate(300,304)"/>
<path d="M0 0 C0.59425781 0.20753906 1.18851562 0.41507812 1.80078125 0.62890625 C-1.28195133 5.19135047 -4.11898968 6.66811608 -9.19921875 8.62890625 C-10.08609375 9.20640625 -10.97296875 9.78390625 -11.88671875 10.37890625 C-14.19921875 11.62890625 -14.19921875 11.62890625 -16.34375 11.20703125 C-16.95605469 11.01625 -17.56835938 10.82546875 -18.19921875 10.62890625 C-17.63074219 10.25378906 -17.06226563 9.87867188 -16.4765625 9.4921875 C-15.70441406 8.98042969 -14.93226563 8.46867187 -14.13671875 7.94140625 C-12.90695312 7.12929688 -12.90695312 7.12929688 -11.65234375 6.30078125 C-9.49750609 4.83219762 -7.44775832 3.28647166 -5.38671875 1.69140625 C-2.19921875 -0.37109375 -2.19921875 -0.37109375 0 0 Z " fill="#DDDDDD" transform="translate(385.19921875,433.37109375)"/>
<path d="M0 0 C8.64488474 1.65710262 15.75663927 8.40543752 22.0625 14.1875 C22.62251709 14.69837158 23.18253418 15.20924316 23.75952148 15.7355957 C26.4558043 18.27354185 28.65872956 20.5093645 30 24 C29.030625 23.175 28.06125 22.35 27.0625 21.5 C26.41667969 20.95085937 25.77085937 20.40171875 25.10546875 19.8359375 C23.70898814 18.61822714 22.3358204 17.37322081 20.98828125 16.1015625 C15.60166533 11.06343375 9.97136987 7.35142092 3.625 3.6640625 C1 2 1 2 0 0 Z " fill="#CBCBCB" transform="translate(323,103)"/>
<path d="M0 0 C0.66 0.33 1.32 0.66 2 1 C-3.0935876 5.87212727 -9.56009524 11 -17 11 C-17 11.66 -17 12.32 -17 13 C-18.98 13.66 -20.96 14.32 -23 15 C-23.33 14.34 -23.66 13.68 -24 13 C-22.85402344 12.39671875 -21.70804687 11.7934375 -20.52734375 11.171875 C-18.99736286 10.36464582 -17.4674168 9.55735064 -15.9375 8.75 C-15.18533203 8.35425781 -14.43316406 7.95851563 -13.65820312 7.55078125 C-12.91376953 7.15761719 -12.16933594 6.76445312 -11.40234375 6.359375 C-10.6635498 5.96943359 -9.92475586 5.57949219 -9.16357422 5.17773438 C-7.09488284 4.05164916 -5.08348384 2.85599662 -3.06640625 1.640625 C-2.05449219 1.09921875 -1.04257812 0.5578125 0 0 Z " fill="#DEDEDE" transform="translate(365,445)"/>
<path d="M0 0 C8.00694114 0.5982929 16.00605711 1.2470635 24 2 C22.68 2.33 21.36 2.66 20 3 C20 3.66 20 4.32 20 5 C17.22867983 4.69140975 14.45800014 4.3782967 11.6875 4.0625 C10.90181641 3.97548828 10.11613281 3.88847656 9.30664062 3.79882812 C8.54931641 3.71181641 7.79199219 3.62480469 7.01171875 3.53515625 C5.96697388 3.41732788 5.96697388 3.41732788 4.90112305 3.29711914 C3 3 3 3 0 2 C0 1.34 0 0.68 0 0 Z " fill="#EDEDED" transform="translate(202,448)"/>
<path d="M0 0 C1.134375 0.47050781 2.26875 0.94101562 3.4375 1.42578125 C4.95830495 2.05475614 6.47913989 2.68365851 8 3.3125 C8.74378906 3.62123047 9.48757813 3.92996094 10.25390625 4.24804688 C15.13567294 6.26442877 20.04523335 8.17011459 25 10 C21.86553001 11.02254658 20.11507471 10.98503523 17.03125 9.85546875 C16.29519531 9.59056641 15.55914062 9.32566406 14.80078125 9.05273438 C14.04152344 8.76720703 13.28226562 8.48167969 12.5 8.1875 C11.36111328 7.77661133 11.36111328 7.77661133 10.19921875 7.35742188 C6.68612109 6.07461827 3.32745636 4.71612542 0 3 C0 2.01 0 1.02 0 0 Z " fill="#242424" transform="translate(293,345)"/>
<path d="M0 0 C0.66 0.33 1.32 0.66 2 1 C-4.62127039 7.58232174 -12.70705435 13.09715875 -22 15 C-22 14.01 -22 13.02 -22 12 C-21.16597656 11.72027344 -20.33195313 11.44054687 -19.47265625 11.15234375 C-11.89498437 8.45285239 -5.99593493 5.37620006 0 0 Z " fill="#E0E0E0" transform="translate(211,306)"/>
<path d="M0 0 C0 1.32 0 2.64 0 4 C-2.1875 5.921875 -2.1875 5.921875 -5 7.75 C-6.3921875 8.67039062 -6.3921875 8.67039062 -7.8125 9.609375 C-8.534375 10.06828125 -9.25625 10.5271875 -10 11 C-10.66 10.67 -11.32 10.34 -12 10 C-10.58426179 6.60812721 -8.95769034 4.90302459 -6 2.75 C-5.29875 2.22921875 -4.5975 1.7084375 -3.875 1.171875 C-2 0 -2 0 0 0 Z " fill="#D4D4D4" transform="translate(340,457)"/>
<path d="M0 0 C-1.53357959 4.62233847 -5.28707795 6.6356531 -9.125 9.25 C-9.78371094 9.70890625 -10.44242188 10.1678125 -11.12109375 10.640625 C-12.7420005 11.76821231 -14.37029686 12.88516391 -16 14 C-16 11 -16 11 -14.0625 8.6875 C-4.84527439 0 -4.84527439 0 0 0 Z " fill="#0E0E0E" transform="translate(168,104)"/>
<path d="M0 0 C0.33 0.99 0.66 1.98 1 3 C-0.35690868 5.44891111 -1.74233407 7.69551587 -3.3125 10 C-3.93801758 10.94359375 -3.93801758 10.94359375 -4.57617188 11.90625 C-5.70807788 13.61042746 -6.85345415 15.3056374 -8 17 C-8.66 17.99 -9.32 18.98 -10 20 C-10.99 19.67 -11.98 19.34 -13 19 C-12.39671875 18.13117188 -11.7934375 17.26234375 -11.171875 16.3671875 C-10.36455497 15.20314467 -9.55726491 14.03908106 -8.75 12.875 C-8.35425781 12.30523437 -7.95851563 11.73546875 -7.55078125 11.1484375 C-4.992978 7.45849183 -2.479977 3.74271758 0 0 Z " fill="#5B5B5B" transform="translate(451,372)"/>
<path d="M0 0 C1.39412109 0.61488281 1.39412109 0.61488281 2.81640625 1.2421875 C4.06500375 1.78668866 5.31370739 2.33094648 6.5625 2.875 C7.47612305 3.27912109 7.47612305 3.27912109 8.40820312 3.69140625 C12.54509929 5.48625009 16.64027642 6.84414021 21 8 C21 8.66 21 9.32 21 10 C13.33969244 8.88667981 6.91369673 6.44370445 0 3 C0 2.01 0 1.02 0 0 Z " fill="#2C2C2C" transform="translate(133,314)"/>
<path d="M0 0 C0.66 0 1.32 0 2 0 C0.64773103 3.11223194 -0.75869119 4.90801029 -3.40625 7.015625 C-4.06753906 7.54414063 -4.72882813 8.07265625 -5.41015625 8.6171875 C-6.09980469 9.15601563 -6.78945313 9.69484375 -7.5 10.25 C-8.53447266 11.08144531 -8.53447266 11.08144531 -9.58984375 11.9296875 C-14.73287408 16 -14.73287408 16 -17 16 C-15.86280581 12.58841744 -14.95657056 11.88145399 -12 10 C-11.34 10 -10.68 10 -10 10 C-10 9.34 -10 8.68 -10 8 C-8.33333333 7 -6.66666667 6 -5 5 C-4.113125 4.113125 -3.22625 3.22625 -2.3125 2.3125 C-1.549375 1.549375 -0.78625 0.78625 0 0 Z " fill="#505050" transform="translate(406,426)"/>
<path d="M0 0 C3.5432211 1.5024543 5.77071524 3.56252265 8.4375 6.3125 C9.22382813 7.116875 10.01015625 7.92125 10.8203125 8.75 C11.89925781 9.86375 11.89925781 9.86375 13 11 C13.928125 11.928125 14.85625 12.85625 15.8125 13.8125 C18.90625 16.90625 18.90625 16.90625 22 20 C21.67 20.66 21.34 21.32 21 22 C20.47043701 21.4652002 19.94087402 20.93040039 19.39526367 20.37939453 C16.99529814 17.95864666 14.59145254 15.54178829 12.1875 13.125 C11.35412109 12.28324219 10.52074219 11.44148438 9.66210938 10.57421875 C8.85966797 9.76855469 8.05722656 8.96289062 7.23046875 8.1328125 C6.49207764 7.38918457 5.75368652 6.64555664 4.99291992 5.87939453 C2.94268695 3.84096614 2.94268695 3.84096614 0 2 C0 1.34 0 0.68 0 0 Z " fill="#4B4B4B" transform="translate(403,73)"/>
<path d="M0 0 C0.33 0.66 0.66 1.32 1 2 C0.2265625 2.15855469 -0.546875 2.31710937 -1.34375 2.48046875 C-8.20623669 4.01773371 -13.26717018 5.92087109 -19 10 C-16.56662605 4.16486859 -11.29633858 1.95319715 -5.6875 -0.375 C-3 -1 -3 -1 0 0 Z " fill="#D3D3D3" transform="translate(202,363)"/>
<path d="M0 0 C6.1155801 0.1528895 10.2365326 3.53854702 15 7 C14.67 7.99 14.34 8.98 14 10 C12.96875 9.195625 11.9375 8.39125 10.875 7.5625 C7.58555106 5.18048525 5.03409157 4.5628965 1 4 C0.34 3.01 -0.32 2.02 -1 1 C-0.67 0.67 -0.34 0.34 0 0 Z " fill="#E1E1E1" transform="translate(296,300)"/>
<path d="M0 0 C1.00836914 0.0009668 1.00836914 0.0009668 2.03710938 0.00195312 C5.10163171 0.0293421 7.5102161 0.2117387 10.4375 1.1875 C10.1075 2.1775 9.7775 3.1675 9.4375 4.1875 C8.87417969 3.86523438 8.31085938 3.54296875 7.73046875 3.2109375 C2.97901478 1.09018632 -2.34890461 1.43768124 -7.21484375 3.0859375 C-9.37770693 4.04948792 -11.48044568 5.06097786 -13.5625 6.1875 C-12.64068217 3.88295543 -11.9149696 2.45164388 -9.91015625 0.94921875 C-6.56258889 -0.13693039 -3.51026856 -0.03774482 0 0 Z " fill="#131313" transform="translate(172.5625,210.8125)"/>
<path d="M0 0 C-1 2 -1 2 -3.58203125 3.0703125 C-4.64808594 3.41835937 -5.71414062 3.76640625 -6.8125 4.125 C-7.87082031 4.47820312 -8.92914063 4.83140625 -10.01953125 5.1953125 C-13 6 -13 6 -17 6 C-17 5.34 -17 4.68 -17 4 C-14.73291675 3.1344953 -12.46224921 2.28240685 -10.1875 1.4375 C-9.54490234 1.19064453 -8.90230469 0.94378906 -8.24023438 0.68945312 C-3.33984375 -1.11328125 -3.33984375 -1.11328125 0 0 Z " fill="#E5E5E5" transform="translate(194,92)"/>
<path d="M0 0 C3.3 0.33 6.6 0.66 10 1 C9.67 1.99 9.34 2.98 9 4 C-2.385 3.505 -2.385 3.505 -14 3 C-14 2.67 -14 2.34 -14 2 C-9.38 1.67 -4.76 1.34 0 1 C0 0.67 0 0.34 0 0 Z " fill="#D0D0D0" transform="translate(222,361)"/>
<path d="M0 0 C1.63030069 4.04979152 0.3199135 7.61740783 -0.8125 11.625 C-0.99103516 12.305625 -1.16957031 12.98625 -1.35351562 13.6875 C-2.73512968 18.73512968 -2.73512968 18.73512968 -5 21 C-4.48799877 14.54878456 -3.23813482 9.05756055 -1 3 C-0.67 2.01 -0.34 1.02 0 0 Z " fill="#515151" transform="translate(480,301)"/>
<path d="M0 0 C0.66 0.99 1.32 1.98 2 3 C1.40097139 5.67349715 0.71692987 8.05883098 -0.1875 10.625 C-0.40986328 11.31851562 -0.63222656 12.01203125 -0.86132812 12.7265625 C-1.54296875 14.7265625 -1.54296875 14.7265625 -3 18 C-3.99 18.33 -4.98 18.66 -6 19 C-4.12275039 12.62267685 -2.14328358 6.29304541 0 0 Z " fill="#5D5D5D" transform="translate(474,320)"/>
<path d="M0 0 C0.66 0.33 1.32 0.66 2 1 C1.45730469 1.67546875 0.91460937 2.3509375 0.35546875 3.046875 C-0.35996094 3.93890625 -1.07539063 4.8309375 -1.8125 5.75 C-2.52019531 6.63171875 -3.22789062 7.5134375 -3.95703125 8.421875 C-5.67505002 10.58992929 -7.35373976 12.77728901 -9 15 C-9.99 14.67 -10.98 14.34 -12 14 C-11.46890625 13.40832031 -10.9378125 12.81664062 -10.390625 12.20703125 C-6.82185937 8.21496312 -3.27989772 4.23653455 0 0 Z " fill="#4A4A4A" transform="translate(438,392)"/>
<path d="M0 0 C-2.28703308 1.19725883 -4.57884862 2.38297018 -6.875 3.5625 C-7.52597656 3.90474609 -8.17695313 4.24699219 -8.84765625 4.59960938 C-10.53529857 5.46082891 -12.26579593 6.23686703 -14 7 C-14.66 6.67 -15.32 6.34 -16 6 C-14.38070456 2.76140913 -11.25333589 2.32339087 -8 1 C-6.9171875 0.38125 -6.9171875 0.38125 -5.8125 -0.25 C-3.49580121 -1.20863398 -2.35513398 -0.68264753 0 0 Z " fill="#4E4E4E" transform="translate(358,462)"/>
<path d="M0 0 C4.69023454 0.56606279 9.34500026 1.18537505 14 2 C13.01 2.495 13.01 2.495 12 3 C12 3.66 12 4.32 12 5 C6.06 3.515 6.06 3.515 0 2 C0 1.34 0 0.68 0 0 Z " fill="#E2E2E2" transform="translate(145,318)"/>
<path d="M0 0 C-2.31881505 2.67901932 -4.31814468 3.66204403 -7.6875 4.6875 C-8.89986328 5.06455078 -8.89986328 5.06455078 -10.13671875 5.44921875 C-11.05904297 5.72185547 -11.05904297 5.72185547 -12 6 C-11 3 -11 3 -9.00390625 1.796875 C-8.19824219 1.45140625 -7.39257812 1.1059375 -6.5625 0.75 C-5.75941406 0.39421875 -4.95632813 0.0384375 -4.12890625 -0.328125 C-2 -1 -2 -1 0 0 Z " fill="#1B1B1B" transform="translate(308,443)"/>
<path d="M0 0 C-5.07476794 1.26305335 -9.72796354 2.27036084 -15 2 C-15 1.34 -15 0.68 -15 0 C-13.25360243 -0.39143394 -11.50264082 -0.76254287 -9.75 -1.125 C-8.77546875 -1.33382813 -7.8009375 -1.54265625 -6.796875 -1.7578125 C-3.76557234 -2.0202996 -2.51982654 -1.61988849 0 0 Z " fill="#232323" transform="translate(371,314)"/>
<path d="M0 0 C4.06498881 1.37184347 6.67396561 3.22068459 9.8125 6.125 C10.99779297 7.21167969 10.99779297 7.21167969 12.20703125 8.3203125 C12.79871094 8.87460937 13.39039062 9.42890625 14 10 C13.01 10.495 13.01 10.495 12 11 C10.18401175 9.54601271 8.37230481 8.08667675 6.5625 6.625 C5.04849609 5.40683594 5.04849609 5.40683594 3.50390625 4.1640625 C1 2 1 2 0 0 Z " fill="#424242" transform="translate(93,426)"/>
<path d="M0 0 C0.33 0.66 0.66 1.32 1 2 C-1.16252661 6.86568488 -4.93525257 9.75933835 -9 13 C-7.50923566 9.7173068 -5.61379679 7.06922559 -3.375 4.25 C-2.74335938 3.45078125 -2.11171875 2.6515625 -1.4609375 1.828125 C-0.97882813 1.22484375 -0.49671875 0.6215625 0 0 Z " fill="#E1E1E1" transform="translate(435,381)"/>
<path d="M0 0 C4.29 0 8.58 0 13 0 C11.68 0.33 10.36 0.66 9 1 C9 1.66 9 2.32 9 3 C6.03 2.67 3.06 2.34 0 2 C0 1.34 0 0.68 0 0 Z " fill="#E0E0E0" transform="translate(213,450)"/>
<path d="M0 0 C0 1.32 0 2.64 0 4 C-1.98 4.99 -3.96 5.98 -6 7 C-5.6875 4.625 -5.6875 4.625 -5 2 C-2 0 -2 0 0 0 Z " fill="#E0E0E0" transform="translate(340,457)"/>
<path d="M0 0 C3.3 1.65 6.6 3.3 10 5 C9.67 5.99 9.34 6.98 9 8 C7.49460339 7.05016642 5.99579653 6.08988109 4.5 5.125 C3.6646875 4.59132813 2.829375 4.05765625 1.96875 3.5078125 C1.3190625 3.01023437 0.669375 2.51265625 0 2 C0 1.34 0 0.68 0 0 Z " fill="#0F0F0F" transform="translate(324,105)"/>
<path d="M0 0 C-2.6598561 3.44216672 -5.90288286 3.99504674 -10 5 C-10 4.01 -10 3.02 -10 2 C-8.71211992 1.46987262 -7.41953322 0.9511671 -6.125 0.4375 C-5.40570313 0.14746094 -4.68640625 -0.14257812 -3.9453125 -0.44140625 C-2 -1 -2 -1 0 0 Z " fill="#E6E6E6" transform="translate(199,316)"/>
<path d="M0 0 C3.3 1.65 6.6 3.3 10 5 C5.23374833 6.19156292 4.12120649 5.3415946 0 3 C0 2.01 0 1.02 0 0 Z " fill="#1C1C1C" transform="translate(133,314)"/>
<path d="M0 0 C0.99 0.33 1.98 0.66 3 1 C2.34 2.32 1.68 3.64 1 5 C-0.65 5 -2.3 5 -4 5 C-2.68 3.35 -1.36 1.7 0 0 Z " fill="#BBBBBB" transform="translate(290,478)"/>
<path d="M0 0 C3.3 1.65 6.6 3.3 10 5 C5.82412255 6.39195915 3.86525224 4.82323219 0 3 C0 2.01 0 1.02 0 0 Z " fill="#181818" transform="translate(293,345)"/>
<path d="M0 0 C4.70990274 2.09329011 8.46908003 5.28324214 12 9 C8.0557333 9 7.17603973 7.68625863 4.3125 5.0625 C3.50425781 4.33160156 2.69601562 3.60070312 1.86328125 2.84765625 C1.24839844 2.23792969 0.63351562 1.62820313 0 1 C0 0.67 0 0.34 0 0 Z " fill="#CDCDCD" transform="translate(282,335)"/>
<path d="M0 0 C3.3 0.33 6.6 0.66 10 1 C10 1.66 10 2.32 10 3 C6.7 2.67 3.4 2.34 0 2 C0 1.34 0 0.68 0 0 Z " fill="#F2F2F2" transform="translate(282,89)"/>
<path d="M0 0 C2.64 0.33 5.28 0.66 8 1 C8 1.99 8 2.98 8 4 C3.545 3.01 3.545 3.01 -1 2 C-0.67 1.34 -0.34 0.68 0 0 Z " fill="#E5E5E5" transform="translate(194,446)"/>
<path d="M0 0 C0.33 0.66 0.66 1.32 1 2 C0.22265625 4.1640625 0.22265625 4.1640625 -0.9375 6.625 C-1.31777344 7.44226563 -1.69804687 8.25953125 -2.08984375 9.1015625 C-2.39019531 9.72804688 -2.69054687 10.35453125 -3 11 C-3.66 10.67 -4.32 10.34 -5 10 C-4.54857119 8.70590408 -4.08858979 7.41478941 -3.625 6.125 C-3.36976563 5.40570313 -3.11453125 4.68640625 -2.8515625 3.9453125 C-2 2 -2 2 0 0 Z " fill="#4F4F4F" transform="translate(469,338)"/>
<path d="M0 0 C0 0.66 0 1.32 0 2 C-3.63 1.67 -7.26 1.34 -11 1 C-6.8204355 -1.78637633 -4.85331323 -0.79562512 0 0 Z " fill="#3B3B3B" transform="translate(217,452)"/>
<path d="M0 0 C-3.63423209 2.32590854 -6.77088331 2.16265833 -11 2 C-11 1.34 -11 0.68 -11 0 C-6.98195309 -0.84098656 -3.98196457 -1.05404945 0 0 Z " fill="#303030" transform="translate(191,322)"/>
<path d="M0 0 C2.31 0.33 4.62 0.66 7 1 C6.67 1.99 6.34 2.98 6 4 C3.03 3.67 0.06 3.34 -3 3 C-2.01 2.67 -1.02 2.34 0 2 C0 1.34 0 0.68 0 0 Z " fill="#D2D2D2" transform="translate(276,87)"/>
<path d="M0 0 C2.72869407 0.03287583 5.2966618 0.56397771 8 1 C7.01 2.485 7.01 2.485 6 4 C3.36 3.34 0.72 2.68 -2 2 C-1.34 1.34 -0.68 0.68 0 0 Z " fill="#E1E1E1" transform="translate(292,91)"/>
<path d="M0 0 C2.64 0.33 5.28 0.66 8 1 C8 1.66 8 2.32 8 3 C5.36 2.67 2.72 2.34 0 2 C0 1.34 0 0.68 0 0 Z " fill="#F6F6F6" transform="translate(231,363)"/>
<path d="M0 0 C2.64 0.66 5.28 1.32 8 2 C8 2.66 8 3.32 8 4 C2.25 3.125 2.25 3.125 0 2 C0 1.34 0 0.68 0 0 Z " fill="#F2F2F2" transform="translate(311,308)"/>
</svg>
